<svg xmlns="http://www.w3.org/2000/svg" width="68" height="68" viewBox="0 0 68 68">
    <circle class="uk-preserve" cx="34" cy="39" r="27" fill="#F6A2B1" />
    <path class="uk-preserve" d="M54,14.2A13.8,13.8,0,0,0,34,3.6a13.5,13.5,0,0,0-5.3-1.5A13.5,13.5,0,0,0,14,14.2c-.3,3.2,1.7,10.6,4,17.8h8v5h2V54.4L34,58l6-3.6V37h2V32h8C52.3,24.8,54.3,17.4,54,14.2Z" fill="#fff" />
    <path d="M42,37H26V32H42ZM54,14.2A13.8,13.8,0,0,0,34,3.6a13.5,13.5,0,0,0-5.3-1.5A13.5,13.5,0,0,0,14,14.2c-.3,3.2,1.7,10.6,4,17.8H50C52.3,24.8,54.3,17.4,54,14.2ZM26,51l16-2M26,47l16-2M26,43l16-2m-2-4H28V54.4L34,58l6-3.6Z" fill="none" stroke="#1e3876" stroke-miterlimit="10" stroke-width="2" />
</svg>
