<svg xmlns="http://www.w3.org/2000/svg" width="68" height="68" viewBox="0 0 68 68">
    <circle class="uk-preserve" cx="33" cy="39" r="27" fill="#fedf72" />
    <path class="uk-preserve" d="M53,16.2C53.6,23.6,43,52,43,52L33,35.6,23,52S12.4,23.6,13,16.2A13.5,13.5,0,0,1,27.7,4.1,13.5,13.5,0,0,1,33,5.6,13.8,13.8,0,0,1,53,16.2" fill="#fff" />
    <path d="M49.1,8A13.4,13.4,0,0,0,38.3,4.1,13.5,13.5,0,0,0,33,5.6a13.5,13.5,0,0,0-5.3-1.5A13.5,13.5,0,0,0,13,16.2C12.4,23.6,23,52,23,52L33,35.6,43,52s8.3-22.3,9.8-32.5c.1-.6.1-1.2.2-1.7" fill="none" stroke="#1e3876" stroke-miterlimit="10" stroke-width="2" />
    <path class="uk-preserve" d="M4.6,15.6,6,12l1.4,3.6L11,17,7.4,18.4,6,22,4.6,18.4,1,17ZM47,12l7.2,2.8L57,22l2.8-7.2L67,12,59.8,9.2,57,2,54.2,9.2Z" fill="#4faae7" />
</svg>
