<svg xmlns="http://www.w3.org/2000/svg" width="68" height="68" viewBox="0 0 68 68">
    <circle class="uk-preserve" cx="34" cy="31" r="29" fill="#4faae7" />
    <path class="uk-preserve" d="M42,63,34,50,26,63s-9.6-23.2-9-29.5A11.6,11.6,0,0,1,29.5,23,11.4,11.4,0,0,1,34,24.5,11.4,11.4,0,0,1,38.5,23,11.6,11.6,0,0,1,51,33.5C51.6,39.8,42,63,42,63Z" fill="#fff" />
    <path d="M42,63,34,50,26,63s-9.6-23.2-9-29.5A11.6,11.6,0,0,1,29.5,23,11.4,11.4,0,0,1,34,24.5,11.4,11.4,0,0,1,38.5,23,11.6,11.6,0,0,1,51,33.5C51.6,39.8,42,63,42,63Z" fill="none" stroke="#1e3876" stroke-miterlimit="10" stroke-width="2" />
    <path d="M39,40c0,2.2-2.2,4-5,4s-5-1.8-5-4m3-6v3m4-3v3" fill="none" stroke="#1e3876" stroke-miterlimit="10" stroke-width="1.5" />
</svg>
