<svg xmlns="http://www.w3.org/2000/svg" width="68" height="68" viewBox="0 0 68 68">
    <path class="uk-preserve" d="M34,64,24,47.6,14,64S3.3,35.6,4,28.2A13.6,13.6,0,0,1,18.7,16,17,17,0,0,1,24,17.6a12,12,0,0,1,5.2-1.5A13.5,13.5,0,0,1,44,28.2h0C44.7,35.6,34,64,34,64Z" fill="#fff" />
    <path d="M34,64,24,47.6,14,64S3.3,35.6,4,28.2A13.6,13.6,0,0,1,18.7,16,17,17,0,0,1,24,17.6a12,12,0,0,1,5.2-1.5A13.5,13.5,0,0,1,44,28.2h0C44.7,35.6,34,64,34,64Z" fill="none" stroke="#1e3876" stroke-miterlimit="10" stroke-width="2" />
    <circle class="uk-preserve" cx="49" cy="19" r="17" fill="#F6A2B1" />
    <polygon class="uk-preserve" points="58 16.5 51.5 16.5 51.5 10 46.5 10 46.5 16.5 40 16.5 40 21.5 46.5 21.5 46.5 28 51.5 28 51.5 21.5 58 21.5 58 16.5" fill="#fff" />
</svg>
