<svg xmlns="http://www.w3.org/2000/svg" width="68" height="68" viewBox="0 0 68 68">
    <defs>
        <clipPath id="clippath-icon-services-endodontics">
            <circle cx="34" cy="45" r="20" fill="none" />
        </clipPath>
    </defs>
    <circle class="uk-preserve" cx="34" cy="38" r="27" fill="#fedf72" />
    <path class="uk-preserve" d="M44,51,34,34.6,24,51S13.4,22.6,14,15.2A13.5,13.5,0,0,1,28.7,3.1,12,12,0,0,1,34,4.6a13.8,13.8,0,0,1,18.6,6A14.5,14.5,0,0,1,54,15.2C54.6,22.6,44,51,44,51Z" fill="#fff" />
    <g clip-path="url(#clippath-icon-services-endodontics)">
        <path class="uk-preserve" d="M44,51,34,34.6,24,51S13.4,22.6,14,15.2A13.5,13.5,0,0,1,28.7,3.1,12,12,0,0,1,34,4.6a13.8,13.8,0,0,1,18.6,6A14.5,14.5,0,0,1,54,15.2C54.6,22.6,44,51,44,51Z" fill="#f6a2b1" />
    </g>
    <path d="M44,51,34,34.6,24,51S13.4,22.6,14,15.2A13.5,13.5,0,0,1,28.7,3.1,12,12,0,0,1,34,4.6a13.8,13.8,0,0,1,18.6,6A14.5,14.5,0,0,1,54,15.2C54.6,22.6,44,51,44,51ZM59,4A34,34,0,0,0,25,38" fill="none" stroke="#1e3876" stroke-miterlimit="10" stroke-width="2" />
</svg>
